<!DOCTYPE svg PUBLIC "-//W3C//DTD SVG 20010904//EN" "http://www.w3.org/TR/2001/REC-SVG-20010904/DTD/svg10.dtd">
<svg version="1.0" xmlns="http://www.w3.org/2000/svg" width="207px" height="205px" viewBox="0 0 2070 2050" preserveAspectRatio="xMidYMid meet">
<g id="layer101" fill="#005532" stroke="none">
 <path d="M0 1025 l0 -1025 1035 0 1035 0 0 1025 0 1025 -1035 0 -1035 0 0 -1025z"/>
 </g>
<g id="layer102" fill="#7fa692" stroke="none">
 <path d="M0 1025 l0 -1025 1035 0 1035 0 0 1025 0 1025 -1035 0 -1035 0 0 -1025z m2030 -5 l0 -1000 -1000 0 -1000 0 0 1000 0 1000 1000 0 1000 0 0 -1000z"/>
 <path d="M845 1756 c-17 -7 -43 -28 -58 -45 -22 -26 -27 -43 -27 -85 0 -103 67 -160 178 -154 68 4 82 14 82 61 0 32 -15 35 -30 6 -7 -11 -27 -27 -45 -35 -73 -30 -121 28 -113 139 5 71 28 98 83 100 30 1 43 -5 66 -31 16 -18 34 -32 40 -32 16 0 1 62 -19 78 -21 16 -119 15 -157 -2z"/>
 <path d="M1140 1761 c-61 -6 -63 -7 -37 -18 27 -12 27 -14 27 -105 0 -105 -6 -138 -26 -138 -7 0 -16 -4 -19 -10 -4 -6 22 -10 69 -10 42 0 76 4 76 9 0 5 -10 11 -22 13 -20 3 -23 10 -26 53 l-3 50 51 -50 c36 -35 46 -51 35 -53 -8 -2 -15 -8 -15 -13 0 -5 29 -9 65 -9 69 0 87 14 32 24 -20 4 -48 22 -71 45 l-38 39 62 76 c33 42 69 80 78 85 26 14 13 17 -62 13 -43 -2 -64 -7 -56 -12 16 -10 6 -33 -35 -85 -30 -37 -48 -24 -43 31 2 29 9 42 26 49 24 10 30 26 10 23 -7 -1 -42 -4 -78 -7z"/>
 <path d="M1410 1751 c0 -5 9 -11 20 -14 18 -5 20 -14 20 -117 0 -103 -2 -112 -20 -117 -38 -10 -20 -23 33 -23 l52 0 49 98 49 97 13 -30 c8 -16 27 -60 44 -97 l29 -68 51 0 c27 0 50 5 50 10 0 6 -9 10 -20 10 -19 0 -20 7 -20 120 0 113 1 120 20 120 11 0 20 5 20 10 0 6 -30 10 -70 10 -40 0 -70 -4 -70 -10 0 -5 9 -10 20 -10 18 0 20 -7 20 -80 0 -48 -4 -80 -10 -80 -6 0 -29 41 -52 90 -22 50 -47 90 -54 90 -8 0 -14 -5 -14 -10 0 -19 -73 -170 -81 -170 -5 0 -9 34 -9 76 0 67 2 76 20 81 39 10 19 23 -35 23 -30 0 -55 -4 -55 -9z"/>
 </g>
<g id="layer103" fill="#a4beb1" stroke="none">
 <path d="M0 1025 l0 -1025 1035 0 1035 0 0 1025 0 1025 -1035 0 -1035 0 0 -1025z m2030 -5 l0 -1000 -1000 0 -1000 0 0 1000 0 1000 1000 0 1000 0 0 -1000z"/>
 <path d="M845 1756 c-17 -7 -43 -28 -58 -45 -22 -26 -27 -43 -27 -85 0 -103 67 -160 178 -154 68 4 82 14 82 61 0 32 -15 35 -30 6 -17 -30 -73 -51 -105 -39 -57 22 -76 174 -27 222 31 32 84 29 120 -5 15 -15 34 -27 40 -27 17 0 4 51 -16 68 -21 16 -119 15 -157 -2z"/>
 <path d="M1140 1761 c-61 -6 -63 -7 -37 -18 27 -12 27 -14 27 -105 0 -112 -5 -134 -33 -144 -19 -6 -16 -8 15 -11 21 -2 57 -3 80 -1 43 4 43 4 16 16 -25 10 -28 17 -28 59 l0 47 50 -49 c36 -35 46 -51 35 -53 -8 -2 -15 -8 -15 -13 0 -5 29 -9 65 -9 69 0 87 14 32 24 -20 4 -49 22 -72 46 l-38 39 58 71 c32 39 67 77 78 85 12 8 19 16 16 18 -2 1 -35 1 -73 -1 -43 -2 -64 -7 -56 -12 16 -10 6 -33 -35 -85 -30 -37 -48 -24 -43 31 2 29 9 42 26 49 24 10 30 26 10 23 -7 -1 -42 -4 -78 -7z"/>
 <path d="M1410 1751 c0 -5 9 -11 20 -14 18 -5 20 -14 20 -117 0 -103 -2 -112 -20 -117 -38 -10 -20 -23 33 -23 l52 0 49 98 49 97 13 -30 c8 -16 27 -60 44 -97 l29 -68 51 0 c27 0 50 5 50 10 0 6 -9 10 -20 10 -19 0 -20 7 -20 120 0 113 1 120 20 120 11 0 20 5 20 10 0 6 -30 10 -70 10 -40 0 -70 -4 -70 -10 0 -5 9 -10 20 -10 18 0 20 -7 20 -80 0 -48 -4 -80 -10 -80 -6 0 -29 41 -52 90 -22 50 -47 90 -54 90 -8 0 -14 -5 -14 -10 0 -19 -73 -170 -81 -170 -5 0 -9 34 -9 76 0 67 2 76 20 81 39 10 19 23 -35 23 -30 0 -55 -4 -55 -9z"/>
 </g>
<g id="layer104" fill="#a8c9b8" stroke="none">
 <path d="M0 1025 l0 -1025 1035 0 1035 0 0 1025 0 1025 -1035 0 -1035 0 0 -1025z m2030 -5 l0 -1000 -1000 0 -1000 0 0 1000 0 1000 1000 0 1000 0 0 -1000z"/>
 <path d="M845 1756 c-17 -7 -43 -28 -58 -45 -22 -26 -27 -43 -27 -85 0 -103 67 -160 178 -154 68 4 82 14 82 61 0 32 -15 35 -30 6 -7 -11 -27 -27 -45 -35 -68 -28 -115 22 -115 123 0 59 17 94 53 111 34 16 92 1 107 -29 6 -10 17 -19 26 -19 19 0 9 49 -14 68 -21 16 -119 15 -157 -2z"/>
 <path d="M1140 1761 c-61 -6 -63 -7 -37 -18 27 -12 27 -14 27 -105 0 -112 -5 -134 -33 -144 -19 -6 -16 -8 15 -11 21 -2 57 -3 80 -1 43 4 43 4 16 16 -25 10 -28 17 -28 59 l0 47 50 -49 c36 -35 46 -51 35 -53 -8 -2 -15 -8 -15 -13 0 -5 29 -9 65 -9 37 0 65 4 65 10 0 6 -12 10 -26 10 -16 0 -42 16 -71 44 l-47 43 60 76 c32 42 67 79 77 82 9 4 17 11 17 17 0 5 -7 7 -16 4 -9 -3 -41 -6 -72 -7 -31 0 -51 -3 -44 -6 21 -8 13 -36 -24 -77 -40 -46 -57 -40 -52 20 2 29 9 42 26 49 24 10 30 26 10 23 -7 -1 -42 -4 -78 -7z"/>
 <path d="M1410 1751 c0 -5 9 -11 20 -14 18 -5 20 -14 20 -117 0 -103 -2 -112 -20 -117 -38 -10 -20 -23 33 -23 l52 0 49 98 49 97 13 -30 c8 -16 27 -60 44 -97 l29 -68 51 0 c27 0 50 5 50 10 0 6 -9 10 -20 10 -19 0 -20 7 -20 120 0 113 1 120 20 120 11 0 20 5 20 10 0 6 -30 10 -70 10 -40 0 -70 -4 -70 -10 0 -5 9 -10 20 -10 19 0 20 -7 20 -96 0 -61 -4 -93 -10 -89 -5 3 -10 10 -10 15 0 24 -85 190 -96 190 -8 0 -14 -5 -14 -10 0 -19 -73 -170 -81 -170 -5 0 -9 36 -9 80 0 73 2 80 20 80 11 0 20 5 20 10 0 6 -25 10 -55 10 -30 0 -55 -4 -55 -9z"/>
 </g>
<g id="layer105" fill="#d9f0e5" stroke="none">
 <path d="M0 1025 l0 -1025 1035 0 1035 0 0 1025 0 1025 -1035 0 -1035 0 0 -1025z m2030 -5 l0 -1000 -1000 0 -1000 0 0 1000 0 1000 1000 0 1000 0 0 -1000z"/>
 <path d="M844 1756 c-17 -8 -44 -30 -59 -50 -25 -33 -27 -42 -22 -92 7 -70 24 -96 82 -124 36 -18 58 -21 102 -18 59 5 73 16 73 61 0 33 -13 35 -33 3 -21 -32 -79 -51 -106 -36 -31 16 -51 63 -51 119 0 63 12 96 45 117 22 14 32 15 65 5 22 -6 44 -21 50 -31 17 -32 42 -26 34 8 -4 15 -10 31 -14 36 -15 15 -133 17 -166 2z"/>
 <path d="M1140 1760 c-61 -5 -63 -6 -37 -17 l27 -13 0 -110 0 -110 -27 -12 -28 -12 37 -4 c21 -2 57 -2 80 0 43 4 43 4 16 16 -25 10 -28 17 -28 57 l0 46 50 -42 c52 -44 61 -59 35 -59 -8 0 -15 -4 -15 -10 0 -6 27 -10 60 -10 33 0 60 2 60 5 0 3 -15 11 -32 19 -18 7 -48 30 -67 49 l-34 36 59 73 c32 40 66 78 74 85 12 10 2 12 -55 12 -38 0 -64 -3 -57 -6 21 -8 13 -36 -23 -76 -39 -45 -55 -41 -55 13 0 28 6 43 21 53 28 20 16 23 -61 17z"/>
 <path d="M1428 1744 c20 -14 22 -23 22 -123 0 -101 -2 -110 -22 -124 -22 -15 -21 -16 32 -16 l55 -1 49 98 49 97 23 -50 c13 -27 32 -71 43 -97 l20 -48 50 0 c28 0 51 5 51 10 0 6 -9 10 -20 10 -19 0 -20 7 -20 120 0 113 1 120 20 120 11 0 20 5 20 10 0 6 -30 10 -70 10 -40 0 -70 -4 -70 -10 0 -5 9 -10 20 -10 19 0 20 -7 20 -96 0 -61 -4 -93 -10 -89 -5 3 -10 10 -10 15 0 24 -85 190 -96 190 -8 0 -14 -6 -14 -12 0 -20 -72 -168 -82 -168 -4 0 -8 35 -8 78 0 72 2 80 23 90 18 9 13 11 -38 11 -57 1 -58 0 -37 -15z m59 -191 c-4 -3 -7 0 -7 7 0 7 3 10 7 7 3 -4 3 -10 0 -14z"/>
 </g>
<g id="layer106" fill="#fdfffe" stroke="none">
 <path d="M0 1025 l0 -1025 1035 0 1035 0 0 1025 0 1025 -1035 0 -1035 0 0 -1025z m2030 -5 l0 -1000 -1000 0 -1000 0 0 1000 0 1000 1000 0 1000 0 0 -1000z"/>
 <path d="M860 1760 c-106 -25 -134 -184 -43 -252 37 -28 50 -31 137 -30 51 0 66 11 66 50 0 30 -12 28 -50 -8 -39 -36 -70 -38 -106 -7 -23 20 -28 34 -32 84 -5 71 11 129 40 144 29 16 89 2 120 -29 33 -30 40 -27 29 14 -5 21 -15 31 -37 35 -40 9 -82 8 -124 -1z"/>
 <path d="M1103 1747 l27 -11 0 -117 0 -117 -27 -10 c-23 -9 -13 -10 52 -11 76 0 79 0 53 15 -25 13 -28 20 -28 63 l0 49 55 -51 c49 -47 53 -53 38 -64 -14 -11 -8 -13 40 -13 31 0 57 2 57 5 0 3 -15 11 -32 19 -18 7 -48 30 -67 49 l-33 35 62 81 c34 44 67 82 73 85 7 2 -17 5 -52 5 -55 1 -62 -1 -51 -14 10 -12 5 -23 -26 -60 -20 -25 -42 -44 -48 -42 -6 2 -12 23 -14 47 -3 33 1 47 14 57 15 11 7 13 -52 12 -60 -1 -66 -2 -41 -12z"/>
 <path d="M1428 1750 c21 -9 22 -14 22 -124 0 -107 -1 -116 -22 -130 -21 -15 -20 -16 32 -16 l55 1 39 85 c22 46 45 89 51 94 11 9 45 -54 84 -152 10 -26 15 -28 63 -27 46 0 50 2 31 11 -22 11 -23 17 -23 130 0 111 1 118 20 118 11 0 20 5 20 10 0 6 -30 10 -70 10 -38 0 -70 -4 -70 -10 0 -5 7 -7 15 -4 22 9 26 -12 23 -112 l-3 -89 -37 75 c-20 41 -43 90 -50 108 -7 17 -15 32 -19 32 -5 0 -22 -32 -75 -147 -16 -34 -32 -62 -36 -62 -5 -1 -8 36 -8 82 0 83 9 109 40 120 8 3 -12 5 -45 6 -46 0 -55 -2 -37 -9z"/>
 </g>

</svg>